<?xml version="1.0" encoding="UTF-8" standalone="no"?>
<!-- Created with Inkscape (http://www.inkscape.org/) -->

<svg
   xmlns:dc="http://purl.org/dc/elements/1.1/"
   xmlns:cc="http://creativecommons.org/ns#"
   xmlns:rdf="http://www.w3.org/1999/02/22-rdf-syntax-ns#"
   xmlns:svg="http://www.w3.org/2000/svg"
   xmlns="http://www.w3.org/2000/svg"
   version="1.1"
   width="525"
   height="446.25"
   id="svg2"
   xml:space="preserve"><metadata
     id="metadata8"><rdf:RDF><cc:Work
         rdf:about=""><dc:format>image/svg+xml</dc:format><dc:type
           rdf:resource="http://purl.org/dc/dcmitype/StillImage" /><dc:title></dc:title></cc:Work></rdf:RDF></metadata><defs
     id="defs6"><clipPath
       id="clipPath18"><path
         d="m 0,0 595.2,0 0,841.8 L 0,841.8 0,0 z"
         id="path20" /></clipPath><clipPath
       id="clipPath26"><path
         d="m 50.4,204.36 494.4,0 0,392.52 -494.4,0 0,-392.52 z"
         id="path28" /></clipPath><clipPath
       id="clipPath114"><path
         d="m 50.52,204.48 494.28,0 0,392.28 -494.28,0 0,-392.28 z"
         id="path116" /></clipPath><clipPath
       id="clipPath126"><path
         d="m 50.52,204.48 494.28,0 0,392.28 -494.28,0 0,-392.28 z"
         id="path128" /></clipPath><clipPath
       id="clipPath138"><path
         d="m 50.52,204.48 494.28,0 0,392.28 -494.28,0 0,-392.28 z"
         id="path140" /></clipPath><clipPath
       id="clipPath150"><path
         d="m 50.52,204.48 494.28,0 0,392.28 -494.28,0 0,-392.28 z"
         id="path152" /></clipPath><clipPath
       id="clipPath162"><path
         d="m 50.52,204.48 494.28,0 0,392.28 -494.28,0 0,-392.28 z"
         id="path164" /></clipPath><clipPath
       id="clipPath174"><path
         d="m 50.52,204.48 494.28,0 0,392.28 -494.28,0 0,-392.28 z"
         id="path176" /></clipPath><clipPath
       id="clipPath186"><path
         d="m 50.52,204.48 494.28,0 0,392.28 -494.28,0 0,-392.28 z"
         id="path188" /></clipPath><clipPath
       id="clipPath198"><path
         d="m 50.52,204.48 494.28,0 0,392.28 -494.28,0 0,-392.28 z"
         id="path200" /></clipPath><clipPath
       id="clipPath210"><path
         d="m 50.52,204.48 494.28,0 0,392.28 -494.28,0 0,-392.28 z"
         id="path212" /></clipPath><clipPath
       id="clipPath222"><path
         d="m 50.52,204.48 494.28,0 0,392.28 -494.28,0 0,-392.28 z"
         id="path224" /></clipPath><clipPath
       id="clipPath240"><path
         d="m 50.52,204.48 494.28,0 0,392.28 -494.28,0 0,-392.28 z"
         id="path242" /></clipPath><clipPath
       id="clipPath258"><path
         d="m 50.52,204.48 494.28,0 0,392.28 -494.28,0 0,-392.28 z"
         id="path260" /></clipPath></defs><g
     transform="matrix(1.25,0,0,-1.25,0,446.25)"
     id="g10"><g
       transform="matrix(1.4775786,0,0,1.3162007,-98.201773,-411.68644)"
       id="g12"><g
         id="g14"><g
           clip-path="url(#clipPath18)"
           id="g16"><g
             id="g22"><g
               clip-path="url(#clipPath26)"
               id="g24"><path
                 d="m 50.676,204.44 494.15,0 0,392.29 -494.15,0 0,-392.29 z"
                 id="path30"
                 style="fill:#ffffff;fill-opacity:1;fill-rule:evenodd;stroke:none" /></g></g><path
             d="m 189.28,340.54 303.32,0 m -303.32,45.07 303.32,0 m -303.32,45.07 303.32,0 m -303.32,45.14 303.32,0"
             id="path32"
             style="fill:none;stroke:#d9d9d9;stroke-width:0.75651246;stroke-linecap:butt;stroke-linejoin:round;stroke-miterlimit:10;stroke-opacity:1;stroke-dasharray:none" /><path
             d="m 290.37,498.36 0,-202.89 m 101.12,202.89 0,-202.89"
             id="path34"
             style="fill:none;stroke:#d9d9d9;stroke-width:0.75651246;stroke-linecap:butt;stroke-linejoin:round;stroke-miterlimit:10;stroke-opacity:1;stroke-dasharray:none" /><path
             d="m 189.28,295.47 303.32,0 0,202.88 -303.32,0 0,-202.88 z"
             id="path36"
             style="fill:none;stroke:#d9d9d9;stroke-width:0.75651246;stroke-linecap:butt;stroke-linejoin:round;stroke-miterlimit:10;stroke-opacity:1;stroke-dasharray:none" /><path
             d="m 189.28,295.47 0,202.89"
             id="path38"
             style="fill:none;stroke:#bfbfbf;stroke-width:0.75651246;stroke-linecap:butt;stroke-linejoin:round;stroke-miterlimit:10;stroke-opacity:1;stroke-dasharray:none" /><path
             d="m 189.28,295.47 303.32,0"
             id="path40"
             style="fill:none;stroke:#bfbfbf;stroke-width:0.75651246;stroke-linecap:butt;stroke-linejoin:round;stroke-miterlimit:10;stroke-opacity:1;stroke-dasharray:none" /><path
             d="m 222.31,478.57 c 8.01,-18.07 17.7,-42.17 24.02,-54.2 5.28,-10.05 10.12,-10.36 13.87,-17.96 4.49,-9.1 6.21,-29.62 13.05,-36.62 6.83,-7.01 17.01,0.54 27.95,-5.4 10.94,-5.93 22.78,-21.7 37.69,-30.22 14.91,-8.52 31.4,-15.79 51.76,-20.92 20.37,-5.12 46.94,-6.57 70.41,-9.86"
             id="path42"
             style="fill:none;stroke:#ff0000;stroke-width:1.51295328;stroke-linecap:round;stroke-linejoin:round;stroke-miterlimit:10;stroke-opacity:1;stroke-dasharray:none" /><path
             d="m 222.34,484.14 5.57,-11.14 -11.14,0 5.57,11.14 z"
             id="path44"
             style="fill:#ff0000;fill-opacity:1;fill-rule:nonzero;stroke:none" /><path
             d="m 222.34,484.14 5.57,-11.14 -11.14,0 5.57,11.14 z"
             id="path46"
             style="fill:none;stroke:#ff0000;stroke-width:0.72625196;stroke-linecap:butt;stroke-linejoin:round;stroke-miterlimit:10;stroke-opacity:1;stroke-dasharray:none" /><path
             d="m 246.31,429.96 5.57,-11.14 -11.14,0 5.57,11.14 z"
             id="path48"
             style="fill:#ff0000;fill-opacity:1;fill-rule:nonzero;stroke:none" /><path
             d="m 246.31,429.96 5.57,-11.14 -11.14,0 5.57,11.14 z"
             id="path50"
             style="fill:none;stroke:#ff0000;stroke-width:0.72625196;stroke-linecap:butt;stroke-linejoin:round;stroke-miterlimit:10;stroke-opacity:1;stroke-dasharray:none" /><path
             d="m 260.15,411.9 5.57,-11.14 -11.14,0 5.57,11.14 z"
             id="path52"
             style="fill:#ff0000;fill-opacity:1;fill-rule:nonzero;stroke:none" /><path
             d="m 260.15,411.9 5.57,-11.14 -11.14,0 5.57,11.14 z"
             id="path54"
             style="fill:none;stroke:#ff0000;stroke-width:0.72625196;stroke-linecap:butt;stroke-linejoin:round;stroke-miterlimit:10;stroke-opacity:1;stroke-dasharray:none" /><path
             d="m 273.32,375.27 5.57,-11.14 -11.14,0 5.57,11.14 z"
             id="path56"
             style="fill:#ff0000;fill-opacity:1;fill-rule:nonzero;stroke:none" /><path
             d="m 273.32,375.27 5.57,-11.14 -11.14,0 5.57,11.14 z"
             id="path58"
             style="fill:none;stroke:#ff0000;stroke-width:0.72625196;stroke-linecap:butt;stroke-linejoin:round;stroke-miterlimit:10;stroke-opacity:1;stroke-dasharray:none" /><path
             d="m 301.17,369.87 5.57,-11.14 -11.14,0 5.57,11.14 z"
             id="path60"
             style="fill:#ff0000;fill-opacity:1;fill-rule:nonzero;stroke:none" /><path
             d="m 301.17,369.87 5.57,-11.14 -11.14,0 5.57,11.14 z"
             id="path62"
             style="fill:none;stroke:#ff0000;stroke-width:0.72625196;stroke-linecap:butt;stroke-linejoin:round;stroke-miterlimit:10;stroke-opacity:1;stroke-dasharray:none" /><path
             d="m 338.81,339.66 5.57,-11.15 -11.14,0 5.57,11.15 z"
             id="path64"
             style="fill:#ff0000;fill-opacity:1;fill-rule:nonzero;stroke:none" /><path
             d="m 338.81,339.66 5.57,-11.15 -11.14,0 5.57,11.15 z"
             id="path66"
             style="fill:none;stroke:#ff0000;stroke-width:0.72625196;stroke-linecap:butt;stroke-linejoin:round;stroke-miterlimit:10;stroke-opacity:1;stroke-dasharray:none" /><path
             d="m 390.63,318.72 5.57,-11.14 -11.14,0 5.57,11.14 z"
             id="path68"
             style="fill:#ff0000;fill-opacity:1;fill-rule:nonzero;stroke:none" /><path
             d="m 390.63,318.72 5.57,-11.14 -11.14,0 5.57,11.14 z"
             id="path70"
             style="fill:none;stroke:#ff0000;stroke-width:0.72625196;stroke-linecap:butt;stroke-linejoin:round;stroke-miterlimit:10;stroke-opacity:1;stroke-dasharray:none" /><path
             d="m 461.02,308.93 5.57,-11.14 -11.14,0 5.57,11.14 z"
             id="path72"
             style="fill:#ff0000;fill-opacity:1;fill-rule:nonzero;stroke:none" /><path
             d="m 461.02,308.93 5.57,-11.14 -11.14,0 5.57,11.14 z"
             id="path74"
             style="fill:none;stroke:#ff0000;stroke-width:0.72625196;stroke-linecap:butt;stroke-linejoin:round;stroke-miterlimit:10;stroke-opacity:1;stroke-dasharray:none" /><path
             d="m 222.31,478.57 c 8.01,-18.07 17.7,-42.17 24.02,-54.2 5.28,-10.05 10.12,-10.36 13.87,-17.96 4.49,-9.1 6.21,-29.62 13.05,-36.62 6.83,-7.01 17.01,0.54 27.95,-5.4 10.94,-5.93 22.78,-21.7 37.69,-30.22 14.91,-8.52 31.4,-15.79 51.76,-20.92 20.37,-5.12 46.94,-6.57 70.41,-9.86"
             id="path76"
             style="fill:none;stroke:#ffc000;stroke-width:1.51295328;stroke-linecap:round;stroke-linejoin:round;stroke-miterlimit:10;stroke-opacity:1;stroke-dasharray:none" /><path
             d="m 216.77,472.83 11.309,0 0,11.309 -11.309,0 0,-11.309 z"
             id="path78"
             style="fill:#ffc000;fill-opacity:1;fill-rule:nonzero;stroke:none" /><path
             d="m 216.77,472.83 11.309,0 0,11.309 -11.309,0 0,-11.309 z"
             id="path80"
             style="fill:none;stroke:#ffc000;stroke-width:0.72625196;stroke-linecap:butt;stroke-linejoin:round;stroke-miterlimit:10;stroke-opacity:1;stroke-dasharray:none" /><path
             d="m 240.74,418.65 11.309,0 0,11.309 -11.309,0 0,-11.309 z"
             id="path82"
             style="fill:#ffc000;fill-opacity:1;fill-rule:nonzero;stroke:none" /><path
             d="m 240.74,418.65 11.309,0 0,11.309 -11.309,0 0,-11.309 z"
             id="path84"
             style="fill:none;stroke:#ffc000;stroke-width:0.72625196;stroke-linecap:butt;stroke-linejoin:round;stroke-miterlimit:10;stroke-opacity:1;stroke-dasharray:none" /><path
             d="m 254.58,400.59 11.309,0 0,11.309 -11.309,0 0,-11.309 z"
             id="path86"
             style="fill:#ffc000;fill-opacity:1;fill-rule:nonzero;stroke:none" /><path
             d="m 254.58,400.59 11.309,0 0,11.309 -11.309,0 0,-11.309 z"
             id="path88"
             style="fill:none;stroke:#ffc000;stroke-width:0.72625196;stroke-linecap:butt;stroke-linejoin:round;stroke-miterlimit:10;stroke-opacity:1;stroke-dasharray:none" /><path
             d="m 267.75,363.96 11.309,0 0,11.309 -11.309,0 0,-11.309 z"
             id="path90"
             style="fill:#ffc000;fill-opacity:1;fill-rule:nonzero;stroke:none" /><path
             d="m 267.75,363.96 11.309,0 0,11.309 -11.309,0 0,-11.309 z"
             id="path92"
             style="fill:none;stroke:#ffc000;stroke-width:0.72625196;stroke-linecap:butt;stroke-linejoin:round;stroke-miterlimit:10;stroke-opacity:1;stroke-dasharray:none" /><path
             d="m 295.6,358.56 11.309,0 0,11.309 -11.309,0 0,-11.309 z"
             id="path94"
             style="fill:#ffc000;fill-opacity:1;fill-rule:nonzero;stroke:none" /><path
             d="m 295.6,358.56 11.309,0 0,11.309 -11.309,0 0,-11.309 z"
             id="path96"
             style="fill:none;stroke:#ffc000;stroke-width:0.72625196;stroke-linecap:butt;stroke-linejoin:round;stroke-miterlimit:10;stroke-opacity:1;stroke-dasharray:none" /><path
             d="m 333.24,328.35 11.309,0 0,11.309 -11.309,0 0,-11.309 z"
             id="path98"
             style="fill:#ffc000;fill-opacity:1;fill-rule:nonzero;stroke:none" /><path
             d="m 333.24,328.35 11.309,0 0,11.309 -11.309,0 0,-11.309 z"
             id="path100"
             style="fill:none;stroke:#ffc000;stroke-width:0.72625196;stroke-linecap:butt;stroke-linejoin:round;stroke-miterlimit:10;stroke-opacity:1;stroke-dasharray:none" /><path
             d="m 385.06,307.42 11.309,0 0,11.309 -11.309,0 0,-11.309 z"
             id="path102"
             style="fill:#ffc000;fill-opacity:1;fill-rule:nonzero;stroke:none" /><path
             d="m 385.06,307.42 11.309,0 0,11.309 -11.309,0 0,-11.309 z"
             id="path104"
             style="fill:none;stroke:#ffc000;stroke-width:0.72625196;stroke-linecap:butt;stroke-linejoin:round;stroke-miterlimit:10;stroke-opacity:1;stroke-dasharray:none" /><path
             d="m 455.45,297.63 11.309,0 0,11.309 -11.309,0 0,-11.309 z"
             id="path106"
             style="fill:#ffc000;fill-opacity:1;fill-rule:nonzero;stroke:none" /><path
             d="m 455.45,297.63 11.309,0 0,11.309 -11.309,0 0,-11.309 z"
             id="path108"
             style="fill:none;stroke:#ffc000;stroke-width:0.72625196;stroke-linecap:butt;stroke-linejoin:round;stroke-miterlimit:10;stroke-opacity:1;stroke-dasharray:none" /><g
             id="g110"><g
               clip-path="url(#clipPath114)"
               id="g112"><text
                 transform="matrix(1,0,0,-1,111.38,288.91)"
                 id="text118"><tspan
                   x="0 11.4444 22.75416 34.198559 45.50832"
                   y="0"
                   id="tspan120"
                   style="font-size:22.44000053px;font-variant:normal;font-weight:normal;writing-mode:lr-tb;fill:#595959;fill-opacity:1;fill-rule:nonzero;stroke:none;font-family:Calibri;-inkscape-font-specification:Calibri">40000</tspan></text>
</g></g><g
             id="g122"><g
               clip-path="url(#clipPath126)"
               id="g124"><text
                 transform="matrix(1,0,0,-1,111.38,334.01)"
                 id="text130"><tspan
                   x="0 11.4444 22.75416 34.198559 45.50832"
                   y="0"
                   id="tspan132"
                   style="font-size:22.44000053px;font-variant:normal;font-weight:normal;writing-mode:lr-tb;fill:#595959;fill-opacity:1;fill-rule:nonzero;stroke:none;font-family:Calibri;-inkscape-font-specification:Calibri">60000</tspan></text>
</g></g><g
             id="g134"><g
               clip-path="url(#clipPath138)"
               id="g136"><text
                 transform="matrix(1,0,0,-1,111.38,379.1)"
                 id="text142"><tspan
                   x="0 11.4444 22.75416 34.198559 45.50832"
                   y="0"
                   id="tspan144"
                   style="font-size:22.44000053px;font-variant:normal;font-weight:normal;writing-mode:lr-tb;fill:#595959;fill-opacity:1;fill-rule:nonzero;stroke:none;font-family:Calibri;-inkscape-font-specification:Calibri">80000</tspan></text>
</g></g><g
             id="g146"><g
               clip-path="url(#clipPath150)"
               id="g148"><text
                 transform="matrix(1,0,0,-1,99.96,424.2)"
                 id="text154"><tspan
                   x="0 11.479104 22.778496 34.257599 45.556992 57.036095"
                   y="0"
                   id="tspan156"
                   style="font-size:22.4640007px;font-variant:normal;font-weight:normal;writing-mode:lr-tb;fill:#595959;fill-opacity:1;fill-rule:nonzero;stroke:none;font-family:Calibri;-inkscape-font-specification:Calibri">100000</tspan></text>
</g></g><g
             id="g158"><g
               clip-path="url(#clipPath162)"
               id="g160"><text
                 transform="matrix(1,0,0,-1,99.96,469.3)"
                 id="text166"><tspan
                   x="0 11.479104 22.778496 34.257599 45.556992 57.036095"
                   y="0"
                   id="tspan168"
                   style="font-size:22.4640007px;font-variant:normal;font-weight:normal;writing-mode:lr-tb;fill:#595959;fill-opacity:1;fill-rule:nonzero;stroke:none;font-family:Calibri;-inkscape-font-specification:Calibri">120000</tspan></text>
</g></g><g
             id="g170"><g
               clip-path="url(#clipPath174)"
               id="g172"><text
                 transform="matrix(1,0,0,-1,152.54,259.66)"
                 id="text178"><tspan
                   x="0 11.45664 17.027712 28.484352 39.446785 50.633858 62.023106"
                   y="0"
                   id="tspan180"
                   style="font-size:22.4640007px;font-variant:normal;font-weight:normal;writing-mode:lr-tb;fill:#595959;fill-opacity:1;fill-rule:nonzero;stroke:none;font-family:Calibri;-inkscape-font-specification:Calibri">2.8E+07</tspan></text>
</g></g><g
             id="g182"><g
               clip-path="url(#clipPath186)"
               id="g184"><text
                 transform="matrix(1,0,0,-1,253.68,259.66)"
                 id="text190"><tspan
                   x="0 11.45664 17.027712 28.484352 39.446785 50.633858 62.023106"
                   y="0"
                   id="tspan192"
                   style="font-size:22.4640007px;font-variant:normal;font-weight:normal;writing-mode:lr-tb;fill:#595959;fill-opacity:1;fill-rule:nonzero;stroke:none;font-family:Calibri;-inkscape-font-specification:Calibri">2.8E+07</tspan></text>
</g></g><g
             id="g194"><g
               clip-path="url(#clipPath198)"
               id="g196"><text
                 transform="matrix(1,0,0,-1,354.79,259.66)"
                 id="text202"><tspan
                   x="0 11.479104 17.050177 28.52928 39.491711 50.678783 62.157887"
                   y="0"
                   id="tspan204"
                   style="font-size:22.4640007px;font-variant:normal;font-weight:normal;writing-mode:lr-tb;fill:#595959;fill-opacity:1;fill-rule:nonzero;stroke:none;font-family:Calibri;-inkscape-font-specification:Calibri">2.9E+07</tspan></text>
</g></g><g
             id="g206"><g
               clip-path="url(#clipPath210)"
               id="g208"><text
                 transform="matrix(-4.4e-8,1,1,4.4e-8,89.712,346.94)"
                 id="text214"><tspan
                   x="0 10.95072 22.73172 33.906841 41.33448 51.903721 62.069038 67.297562 74.096878 85.877876 92.924042"
                   y="0"
                   id="tspan216"
                   style="font-size:22.44000053px;font-variant:normal;font-weight:normal;writing-mode:lr-tb;fill:#595959;fill-opacity:1;fill-rule:nonzero;stroke:none;font-family:Calibri;-inkscape-font-specification:Calibri">Energy (uJ)</tspan></text>
</g></g><g
             id="g218"><g
               clip-path="url(#clipPath222)"
               id="g220"><text
                 transform="matrix(1,0,0,-1,247.46,227.95)"
                 id="text226"><tspan
                   x="0 11.15268 22.327801 30.092039 36.532318 48.3582 56.189758 74.052002 84.800758 96.671516 106.16364 117.33876 124.04832 136.00883 145.83755 155.32968 160.49088 171.666 180.44003"
                   y="0"
                   id="tspan228"
                   style="font-size:22.44000053px;font-variant:normal;font-weight:normal;writing-mode:lr-tb;fill:#595959;fill-opacity:1;fill-rule:nonzero;stroke:none;font-family:Calibri;-inkscape-font-specification:Calibri">Performance(Cycles)</tspan></text>
</g></g><path
             d="m 172.48,570.47 27.01,0"
             id="path230"
             style="fill:none;stroke:#ff0000;stroke-width:1.51295328;stroke-linecap:round;stroke-linejoin:round;stroke-miterlimit:10;stroke-opacity:1;stroke-dasharray:none" /><path
             d="m 185.89,576.18 5.57,-11.14 -11.14,0 5.57,11.14 z"
             id="path232"
             style="fill:#ff0000;fill-opacity:1;fill-rule:nonzero;stroke:none" /><path
             d="m 185.89,576.18 5.57,-11.14 -11.14,0 5.57,11.14 z"
             id="path234"
             style="fill:none;stroke:#ff0000;stroke-width:0.72625196;stroke-linecap:butt;stroke-linejoin:round;stroke-miterlimit:10;stroke-opacity:1;stroke-dasharray:none" /><g
             id="g236"><g
               clip-path="url(#clipPath240)"
               id="g238"><text
                 transform="matrix(1,0,0,-1,202.37,563.95)"
                 id="text244"><tspan
                   x="0 10.92828 21.228239 26.299681 37.990921 48.784561 56.705879 67.880997 75.443283 87.269157 94.180679 109.03596 120.81696 128.44656 133.51801 151.55975 162.35339 167.42484 172.49628 184.63632 196.41731 204.24889 214.39175"
                   y="0"
                   id="tspan246"
                   style="font-size:22.44000053px;font-variant:normal;font-weight:normal;writing-mode:lr-tb;fill:#595959;fill-opacity:1;fill-rule:nonzero;stroke:none;font-family:Calibri;-inkscape-font-specification:Calibri">TS Pareto-Optimal Curve</tspan></text>
</g></g><path
             d="m 172.48,534.84 27.01,0"
             id="path248"
             style="fill:none;stroke:#ffc000;stroke-width:1.51295328;stroke-linecap:round;stroke-linejoin:round;stroke-miterlimit:10;stroke-opacity:1;stroke-dasharray:none" /><path
             d="m 180.32,529.26 11.309,0 0,11.309 -11.309,0 0,-11.309 z"
             id="path250"
             style="fill:#ffc000;fill-opacity:1;fill-rule:nonzero;stroke:none" /><path
             d="m 180.32,529.26 11.309,0 0,11.309 -11.309,0 0,-11.309 z"
             id="path252"
             style="fill:none;stroke:#ffc000;stroke-width:0.75651246;stroke-linecap:butt;stroke-linejoin:round;stroke-miterlimit:10;stroke-opacity:1;stroke-dasharray:none" /><g
             id="g254"><g
               clip-path="url(#clipPath258)"
               id="g256"><text
                 transform="matrix(1,0,0,-1,202.37,528.31)"
                 id="text262"><tspan
                   x="0 10.95072 21.250681 26.50164 37.990921 48.784561 56.705879 67.880997 75.443283 87.269157 94.180679 109.03596 120.81696 128.44656 133.65263 151.5822 162.33096 167.49216 172.65337 184.61388 196.4622 204.29376 214.36932"
                   y="0"
                   id="tspan264"
                   style="font-size:22.44000053px;font-variant:normal;font-weight:normal;writing-mode:lr-tb;fill:#595959;fill-opacity:1;fill-rule:nonzero;stroke:none;font-family:Calibri;-inkscape-font-specification:Calibri">ES Pareto-Optimal Curve</tspan></text>
</g></g></g></g></g></g></svg>